<?xml version="1.0" encoding="UTF-8" standalone="no"?>
<!-- Created with Inkscape (http://www.inkscape.org/) -->

<svg
   width="800"
   height="800"
   viewBox="0 0 211.66666 211.66667"
   version="1.1"
   id="svg1"
   inkscape:version="1.4.3 (0d15f75042, 2025-12-25)"
   sodipodi:docname="logo-mini.svg"
   xmlns:inkscape="http://www.inkscape.org/namespaces/inkscape"
   xmlns:sodipodi="http://sodipodi.sourceforge.net/DTD/sodipodi-0.dtd"
   xmlns:xlink="http://www.w3.org/1999/xlink"
   xmlns="http://www.w3.org/2000/svg"
   xmlns:svg="http://www.w3.org/2000/svg">
  <sodipodi:namedview
     id="namedview1"
     pagecolor="#ffffff"
     bordercolor="#000000"
     borderopacity="0.25"
     inkscape:showpageshadow="2"
     inkscape:pageopacity="0.0"
     inkscape:pagecheckerboard="0"
     inkscape:deskcolor="#d1d1d1"
     inkscape:document-units="px"
     inkscape:zoom="1.0618967"
     inkscape:cx="396.93126"
     inkscape:cy="560.31816"
     inkscape:window-width="2560"
     inkscape:window-height="1403"
     inkscape:window-x="0"
     inkscape:window-y="0"
     inkscape:window-maximized="1"
     inkscape:current-layer="g1" />
  <defs
     id="defs1">
    <inkscape:path-effect
       effect="powerstroke"
       message=""
       id="path-effect2"
       is_visible="true"
       lpeversion="1.3"
       scale_width="1"
       interpolator_type="CentripetalCatmullRom"
       interpolator_beta="0.1988417"
       start_linecap_type="zerowidth"
       end_linecap_type="zerowidth"
       offset_points="0.48516267,-0.51591869 | 5.1539532,-0.69065355 | 6.2660507,-0.55947036"
       linejoin_type="round"
       miter_limit="4"
       not_jump="false"
       sort_points="false" />
    <inkscape:path-effect
       effect="powerstroke"
       message=""
       id="path-effect6"
       is_visible="true"
       lpeversion="1.3"
       scale_width="1"
       interpolator_type="CentripetalCatmullRom"
       interpolator_beta="0.2"
       start_linecap_type="zerowidth"
       end_linecap_type="zerowidth"
       offset_points="0.52105504,0.54473443 | 4,0.66145998 | 6.8871003,0.82486557"
       linejoin_type="round"
       miter_limit="4"
       not_jump="false"
       sort_points="true" />
    <inkscape:path-effect
       effect="powerstroke"
       message=""
       id="path-effect7"
       is_visible="true"
       lpeversion="1.3"
       scale_width="1"
       interpolator_type="CentripetalCatmullRom"
       interpolator_beta="0.2"
       start_linecap_type="zerowidth"
       end_linecap_type="zerowidth"
       offset_points="0.56838339,0.82584148 | 0.99896255,1.027014 | 1.7647076,0.52048108"
       linejoin_type="round"
       miter_limit="4"
       not_jump="false"
       sort_points="true" />
    <inkscape:path-effect
       effect="powerstroke"
       message=""
       id="path-effect3"
       is_visible="true"
       lpeversion="1.3"
       scale_width="1"
       interpolator_type="CentripetalCatmullRom"
       interpolator_beta="0.2"
       start_linecap_type="zerowidth"
       end_linecap_type="zerowidth"
       offset_points="0.47814645,0.49580191 | 2.6820021,1.0147906 | 5.5196412,0.1850743"
       linejoin_type="round"
       miter_limit="4"
       not_jump="false"
       sort_points="true" />
    <inkscape:path-effect
       effect="powerstroke"
       message=""
       id="path-effect5"
       is_visible="true"
       lpeversion="1.3"
       scale_width="1"
       interpolator_type="CentripetalCatmullRom"
       interpolator_beta="0.2"
       start_linecap_type="zerowidth"
       end_linecap_type="zerowidth"
       offset_points="0.026150972,0.14086521 | 0.51149226,0.28437452 | 0.97984492,0.17788242"
       linejoin_type="round"
       miter_limit="4"
       not_jump="false"
       sort_points="true" />
    <inkscape:path-effect
       effect="powerstroke"
       message=""
       id="path-effect9"
       is_visible="true"
       lpeversion="1.3"
       scale_width="1"
       interpolator_type="CentripetalCatmullRom"
       interpolator_beta="0.2"
       start_linecap_type="zerowidth"
       end_linecap_type="zerowidth"
       offset_points="0.026150972,0.14086521 | 0.51149226,0.28437452 | 0.97984492,0.17788242"
       linejoin_type="round"
       miter_limit="4"
       not_jump="false"
       sort_points="true" />
    <inkscape:path-effect
       effect="powerstroke"
       message=""
       id="path-effect11"
       is_visible="true"
       lpeversion="1.3"
       scale_width="1"
       interpolator_type="CentripetalCatmullRom"
       interpolator_beta="0.2"
       start_linecap_type="zerowidth"
       end_linecap_type="zerowidth"
       offset_points="0.026150972,0.14086521 | 0.51149226,0.28437452 | 0.97984492,0.17788242"
       linejoin_type="round"
       miter_limit="4"
       not_jump="false"
       sort_points="true" />
    <inkscape:path-effect
       effect="powerstroke"
       message=""
       id="path-effect13"
       is_visible="true"
       lpeversion="1.3"
       scale_width="1"
       interpolator_type="CentripetalCatmullRom"
       interpolator_beta="0.2"
       start_linecap_type="zerowidth"
       end_linecap_type="zerowidth"
       offset_points="0.026150972,0.14086521 | 0.51149226,0.28437452 | 0.97984492,0.17788242"
       linejoin_type="round"
       miter_limit="4"
       not_jump="false"
       sort_points="true" />
    <inkscape:path-effect
       effect="powerstroke"
       message=""
       id="path-effect15"
       is_visible="true"
       lpeversion="1.3"
       scale_width="1"
       interpolator_type="CentripetalCatmullRom"
       interpolator_beta="0.2"
       start_linecap_type="zerowidth"
       end_linecap_type="zerowidth"
       offset_points="0.026150972,0.14086521 | 0.51149226,0.28437452 | 0.97984492,0.17788242"
       linejoin_type="round"
       miter_limit="4"
       not_jump="false"
       sort_points="true" />
    <inkscape:path-effect
       effect="powerstroke"
       message=""
       id="path-effect17"
       is_visible="true"
       lpeversion="1.3"
       scale_width="1"
       interpolator_type="CentripetalCatmullRom"
       interpolator_beta="0.2"
       start_linecap_type="zerowidth"
       end_linecap_type="zerowidth"
       offset_points="0.026150972,0.14086521 | 0.51149226,0.28437452 | 0.97984492,0.17788242"
       linejoin_type="round"
       miter_limit="4"
       not_jump="false"
       sort_points="true" />
    <inkscape:path-effect
       effect="powerstroke"
       message=""
       id="path-effect19"
       is_visible="true"
       lpeversion="1.3"
       scale_width="1"
       interpolator_type="CentripetalCatmullRom"
       interpolator_beta="0.2"
       start_linecap_type="zerowidth"
       end_linecap_type="zerowidth"
       offset_points="0.026150972,0.14086521 | 0.51149226,0.28437452 | 0.97984492,0.17788242"
       linejoin_type="round"
       miter_limit="4"
       not_jump="false"
       sort_points="true" />
    <inkscape:path-effect
       effect="powerstroke"
       message=""
       id="path-effect21"
       is_visible="true"
       lpeversion="1.3"
       scale_width="1"
       interpolator_type="CentripetalCatmullRom"
       interpolator_beta="0.2"
       start_linecap_type="zerowidth"
       end_linecap_type="zerowidth"
       offset_points="0.026150972,0.14086521 | 0.51149226,0.28437452 | 0.97984492,0.17788242"
       linejoin_type="round"
       miter_limit="4"
       not_jump="false"
       sort_points="true" />
    <inkscape:path-effect
       effect="powerstroke"
       message=""
       id="path-effect22"
       is_visible="true"
       lpeversion="1.3"
       scale_width="1"
       interpolator_type="CentripetalCatmullRom"
       interpolator_beta="0.2"
       start_linecap_type="zerowidth"
       end_linecap_type="zerowidth"
       offset_points="0.016503352,0.069224108 | 0.66865536,0.16906064 | 1,0.049270691"
       linejoin_type="round"
       miter_limit="4"
       not_jump="false"
       sort_points="true" />
    <inkscape:path-effect
       effect="powerstroke"
       message=""
       id="path-effect24"
       is_visible="true"
       lpeversion="1.3"
       scale_width="1"
       interpolator_type="CentripetalCatmullRom"
       interpolator_beta="0.2"
       start_linecap_type="zerowidth"
       end_linecap_type="zerowidth"
       offset_points="0.016503352,0.069224108 | 0.66865536,0.16906064 | 1,0.049270691"
       linejoin_type="round"
       miter_limit="4"
       not_jump="false"
       sort_points="true" />
    <inkscape:path-effect
       effect="powerstroke"
       message=""
       id="path-effect46"
       is_visible="true"
       lpeversion="1.3"
       scale_width="1"
       interpolator_type="CentripetalCatmullRom"
       interpolator_beta="0.2"
       start_linecap_type="zerowidth"
       end_linecap_type="zerowidth"
       offset_points="0.016503352,0.069224108 | 0.66865536,0.16906064 | 1,0.049270691"
       linejoin_type="round"
       miter_limit="4"
       not_jump="false"
       sort_points="true" />
    <inkscape:path-effect
       effect="powerstroke"
       message=""
       id="path-effect48"
       is_visible="true"
       lpeversion="1.3"
       scale_width="1"
       interpolator_type="CentripetalCatmullRom"
       interpolator_beta="0.2"
       start_linecap_type="zerowidth"
       end_linecap_type="zerowidth"
       offset_points="0.016503352,0.069224108 | 0.66865536,0.16906064 | 1,0.049270691"
       linejoin_type="round"
       miter_limit="4"
       not_jump="false"
       sort_points="true" />
    <inkscape:path-effect
       effect="powerstroke"
       message=""
       id="path-effect50"
       is_visible="true"
       lpeversion="1.3"
       scale_width="1"
       interpolator_type="CentripetalCatmullRom"
       interpolator_beta="0.2"
       start_linecap_type="zerowidth"
       end_linecap_type="zerowidth"
       offset_points="0.016503352,0.069224108 | 0.66865536,0.16906064 | 1,0.049270691"
       linejoin_type="round"
       miter_limit="4"
       not_jump="false"
       sort_points="true" />
    <inkscape:path-effect
       effect="powerstroke"
       message=""
       id="path-effect52"
       is_visible="true"
       lpeversion="1.3"
       scale_width="1"
       interpolator_type="CentripetalCatmullRom"
       interpolator_beta="0.2"
       start_linecap_type="zerowidth"
       end_linecap_type="zerowidth"
       offset_points="0.016503352,0.069224108 | 0.66865536,0.16906064 | 1,0.049270691"
       linejoin_type="round"
       miter_limit="4"
       not_jump="false"
       sort_points="true" />
    <inkscape:path-effect
       effect="powerstroke"
       message=""
       id="path-effect54"
       is_visible="true"
       lpeversion="1.3"
       scale_width="1"
       interpolator_type="CentripetalCatmullRom"
       interpolator_beta="0.2"
       start_linecap_type="zerowidth"
       end_linecap_type="zerowidth"
       offset_points="0.016503352,0.069224108 | 0.66865536,0.16906064 | 1,0.049270691"
       linejoin_type="round"
       miter_limit="4"
       not_jump="false"
       sort_points="true" />
    <inkscape:path-effect
       effect="powerstroke"
       message=""
       id="path-effect56"
       is_visible="true"
       lpeversion="1.3"
       scale_width="1"
       interpolator_type="CentripetalCatmullRom"
       interpolator_beta="0.2"
       start_linecap_type="zerowidth"
       end_linecap_type="zerowidth"
       offset_points="0.016503352,0.069224108 | 0.66865536,0.16906064 | 1,0.049270691"
       linejoin_type="round"
       miter_limit="4"
       not_jump="false"
       sort_points="true" />
    <inkscape:path-effect
       effect="powerstroke"
       message=""
       id="path-effect58"
       is_visible="true"
       lpeversion="1.3"
       scale_width="1"
       interpolator_type="CentripetalCatmullRom"
       interpolator_beta="0.2"
       start_linecap_type="zerowidth"
       end_linecap_type="zerowidth"
       offset_points="0.016503352,0.069224108 | 0.66865536,0.16906064 | 1,0.049270691"
       linejoin_type="round"
       miter_limit="4"
       not_jump="false"
       sort_points="true" />
    <inkscape:path-effect
       effect="powerstroke"
       message=""
       id="path-effect59"
       is_visible="true"
       lpeversion="1.3"
       scale_width="1"
       interpolator_type="CentripetalCatmullRom"
       interpolator_beta="0.2"
       start_linecap_type="zerowidth"
       end_linecap_type="zerowidth"
       offset_points="0.3889263,-0.24584594 | 1.1698464,-1.0738739 | 1.7754543,-0.56113431"
       linejoin_type="round"
       miter_limit="4"
       not_jump="false"
       sort_points="true" />
    <inkscape:path-effect
       effect="powerstroke"
       message=""
       id="path-effect51"
       is_visible="true"
       lpeversion="1.3"
       scale_width="1"
       interpolator_type="CentripetalCatmullRom"
       interpolator_beta="0.1988417"
       start_linecap_type="zerowidth"
       end_linecap_type="zerowidth"
       offset_points="0.48516267,-0.51591869 | 5.1539532,-0.69065355 | 6.2660507,-0.55947036"
       linejoin_type="round"
       miter_limit="4"
       not_jump="false"
       sort_points="false" />
    <inkscape:path-effect
       effect="powerstroke"
       message=""
       id="path-effect55"
       is_visible="true"
       lpeversion="1.3"
       scale_width="1"
       interpolator_type="CentripetalCatmullRom"
       interpolator_beta="0.2"
       start_linecap_type="zerowidth"
       end_linecap_type="zerowidth"
       offset_points="0.52105504,0.54473443 | 4,0.66145998 | 6.8871003,0.82486557"
       linejoin_type="round"
       miter_limit="4"
       not_jump="false"
       sort_points="true" />
    <inkscape:path-effect
       effect="powerstroke"
       message=""
       id="path-effect60"
       is_visible="true"
       lpeversion="1.3"
       scale_width="1"
       interpolator_type="CentripetalCatmullRom"
       interpolator_beta="0.2"
       start_linecap_type="zerowidth"
       end_linecap_type="zerowidth"
       offset_points="0.56838339,0.82584148 | 0.99896255,1.027014 | 1.7647076,0.52048108"
       linejoin_type="round"
       miter_limit="4"
       not_jump="false"
       sort_points="true" />
    <inkscape:path-effect
       effect="powerstroke"
       message=""
       id="path-effect62"
       is_visible="true"
       lpeversion="1.3"
       scale_width="1"
       interpolator_type="CentripetalCatmullRom"
       interpolator_beta="0.2"
       start_linecap_type="zerowidth"
       end_linecap_type="zerowidth"
       offset_points="0.47814645,0.49580191 | 2.6820021,1.0147906 | 5.5196412,0.1850743"
       linejoin_type="round"
       miter_limit="4"
       not_jump="false"
       sort_points="true" />
    <inkscape:path-effect
       effect="powerstroke"
       message=""
       id="path-effect64"
       is_visible="true"
       lpeversion="1.3"
       scale_width="1"
       interpolator_type="CentripetalCatmullRom"
       interpolator_beta="0.2"
       start_linecap_type="zerowidth"
       end_linecap_type="zerowidth"
       offset_points="0.026150972,0.14086521 | 0.51149226,0.28437452 | 0.97984492,0.17788242"
       linejoin_type="round"
       miter_limit="4"
       not_jump="false"
       sort_points="true" />
    <inkscape:path-effect
       effect="powerstroke"
       message=""
       id="path-effect66"
       is_visible="true"
       lpeversion="1.3"
       scale_width="1"
       interpolator_type="CentripetalCatmullRom"
       interpolator_beta="0.2"
       start_linecap_type="zerowidth"
       end_linecap_type="zerowidth"
       offset_points="0.026150972,0.14086521 | 0.51149226,0.28437452 | 0.97984492,0.17788242"
       linejoin_type="round"
       miter_limit="4"
       not_jump="false"
       sort_points="true" />
    <inkscape:path-effect
       effect="powerstroke"
       message=""
       id="path-effect68"
       is_visible="true"
       lpeversion="1.3"
       scale_width="1"
       interpolator_type="CentripetalCatmullRom"
       interpolator_beta="0.2"
       start_linecap_type="zerowidth"
       end_linecap_type="zerowidth"
       offset_points="0.026150972,0.14086521 | 0.51149226,0.28437452 | 0.97984492,0.17788242"
       linejoin_type="round"
       miter_limit="4"
       not_jump="false"
       sort_points="true" />
    <inkscape:path-effect
       effect="powerstroke"
       message=""
       id="path-effect70"
       is_visible="true"
       lpeversion="1.3"
       scale_width="1"
       interpolator_type="CentripetalCatmullRom"
       interpolator_beta="0.2"
       start_linecap_type="zerowidth"
       end_linecap_type="zerowidth"
       offset_points="0.026150972,0.14086521 | 0.51149226,0.28437452 | 0.97984492,0.17788242"
       linejoin_type="round"
       miter_limit="4"
       not_jump="false"
       sort_points="true" />
    <inkscape:path-effect
       effect="powerstroke"
       message=""
       id="path-effect72"
       is_visible="true"
       lpeversion="1.3"
       scale_width="1"
       interpolator_type="CentripetalCatmullRom"
       interpolator_beta="0.2"
       start_linecap_type="zerowidth"
       end_linecap_type="zerowidth"
       offset_points="0.026150972,0.14086521 | 0.51149226,0.28437452 | 0.97984492,0.17788242"
       linejoin_type="round"
       miter_limit="4"
       not_jump="false"
       sort_points="true" />
    <inkscape:path-effect
       effect="powerstroke"
       message=""
       id="path-effect74"
       is_visible="true"
       lpeversion="1.3"
       scale_width="1"
       interpolator_type="CentripetalCatmullRom"
       interpolator_beta="0.2"
       start_linecap_type="zerowidth"
       end_linecap_type="zerowidth"
       offset_points="0.026150972,0.14086521 | 0.51149226,0.28437452 | 0.97984492,0.17788242"
       linejoin_type="round"
       miter_limit="4"
       not_jump="false"
       sort_points="true" />
    <inkscape:path-effect
       effect="powerstroke"
       message=""
       id="path-effect76"
       is_visible="true"
       lpeversion="1.3"
       scale_width="1"
       interpolator_type="CentripetalCatmullRom"
       interpolator_beta="0.2"
       start_linecap_type="zerowidth"
       end_linecap_type="zerowidth"
       offset_points="0.026150972,0.14086521 | 0.51149226,0.28437452 | 0.97984492,0.17788242"
       linejoin_type="round"
       miter_limit="4"
       not_jump="false"
       sort_points="true" />
    <inkscape:path-effect
       effect="powerstroke"
       message=""
       id="path-effect78"
       is_visible="true"
       lpeversion="1.3"
       scale_width="1"
       interpolator_type="CentripetalCatmullRom"
       interpolator_beta="0.2"
       start_linecap_type="zerowidth"
       end_linecap_type="zerowidth"
       offset_points="0.026150972,0.14086521 | 0.51149226,0.28437452 | 0.97984492,0.17788242"
       linejoin_type="round"
       miter_limit="4"
       not_jump="false"
       sort_points="true" />
    <inkscape:path-effect
       effect="powerstroke"
       message=""
       id="path-effect80"
       is_visible="true"
       lpeversion="1.3"
       scale_width="1"
       interpolator_type="CentripetalCatmullRom"
       interpolator_beta="0.2"
       start_linecap_type="zerowidth"
       end_linecap_type="zerowidth"
       offset_points="0.016503352,0.069224108 | 0.66865536,0.16906064 | 1,0.049270691"
       linejoin_type="round"
       miter_limit="4"
       not_jump="false"
       sort_points="true" />
    <inkscape:path-effect
       effect="powerstroke"
       message=""
       id="path-effect82"
       is_visible="true"
       lpeversion="1.3"
       scale_width="1"
       interpolator_type="CentripetalCatmullRom"
       interpolator_beta="0.2"
       start_linecap_type="zerowidth"
       end_linecap_type="zerowidth"
       offset_points="0.016503352,0.069224108 | 0.66865536,0.16906064 | 1,0.049270691"
       linejoin_type="round"
       miter_limit="4"
       not_jump="false"
       sort_points="true" />
    <inkscape:path-effect
       effect="powerstroke"
       message=""
       id="path-effect84"
       is_visible="true"
       lpeversion="1.3"
       scale_width="1"
       interpolator_type="CentripetalCatmullRom"
       interpolator_beta="0.2"
       start_linecap_type="zerowidth"
       end_linecap_type="zerowidth"
       offset_points="0.016503352,0.069224108 | 0.66865536,0.16906064 | 1,0.049270691"
       linejoin_type="round"
       miter_limit="4"
       not_jump="false"
       sort_points="true" />
    <inkscape:path-effect
       effect="powerstroke"
       message=""
       id="path-effect86"
       is_visible="true"
       lpeversion="1.3"
       scale_width="1"
       interpolator_type="CentripetalCatmullRom"
       interpolator_beta="0.2"
       start_linecap_type="zerowidth"
       end_linecap_type="zerowidth"
       offset_points="0.016503352,0.069224108 | 0.66865536,0.16906064 | 1,0.049270691"
       linejoin_type="round"
       miter_limit="4"
       not_jump="false"
       sort_points="true" />
    <inkscape:path-effect
       effect="powerstroke"
       message=""
       id="path-effect88"
       is_visible="true"
       lpeversion="1.3"
       scale_width="1"
       interpolator_type="CentripetalCatmullRom"
       interpolator_beta="0.2"
       start_linecap_type="zerowidth"
       end_linecap_type="zerowidth"
       offset_points="0.016503352,0.069224108 | 0.66865536,0.16906064 | 1,0.049270691"
       linejoin_type="round"
       miter_limit="4"
       not_jump="false"
       sort_points="true" />
    <inkscape:path-effect
       effect="powerstroke"
       message=""
       id="path-effect90"
       is_visible="true"
       lpeversion="1.3"
       scale_width="1"
       interpolator_type="CentripetalCatmullRom"
       interpolator_beta="0.2"
       start_linecap_type="zerowidth"
       end_linecap_type="zerowidth"
       offset_points="0.016503352,0.069224108 | 0.66865536,0.16906064 | 1,0.049270691"
       linejoin_type="round"
       miter_limit="4"
       not_jump="false"
       sort_points="true" />
    <inkscape:path-effect
       effect="powerstroke"
       message=""
       id="path-effect94"
       is_visible="true"
       lpeversion="1.3"
       scale_width="1"
       interpolator_type="CentripetalCatmullRom"
       interpolator_beta="0.2"
       start_linecap_type="zerowidth"
       end_linecap_type="zerowidth"
       offset_points="0.016503352,0.069224108 | 0.66865536,0.16906064 | 1,0.049270691"
       linejoin_type="round"
       miter_limit="4"
       not_jump="false"
       sort_points="true" />
    <inkscape:path-effect
       effect="powerstroke"
       message=""
       id="path-effect96"
       is_visible="true"
       lpeversion="1.3"
       scale_width="1"
       interpolator_type="CentripetalCatmullRom"
       interpolator_beta="0.2"
       start_linecap_type="zerowidth"
       end_linecap_type="zerowidth"
       offset_points="0.016503352,0.069224108 | 0.66865536,0.16906064 | 1,0.049270691"
       linejoin_type="round"
       miter_limit="4"
       not_jump="false"
       sort_points="true" />
    <inkscape:path-effect
       effect="powerstroke"
       message=""
       id="path-effect98"
       is_visible="true"
       lpeversion="1.3"
       scale_width="1"
       interpolator_type="CentripetalCatmullRom"
       interpolator_beta="0.2"
       start_linecap_type="zerowidth"
       end_linecap_type="zerowidth"
       offset_points="0.3889263,-0.24584594 | 1.1698464,-1.0738739 | 1.7754543,-0.56113431"
       linejoin_type="round"
       miter_limit="4"
       not_jump="false"
       sort_points="true" />
    <radialGradient
       inkscape:collect="always"
       xlink:href="#linearGradient37"
       id="radialGradient46"
       cx="131.54968"
       cy="55.368198"
       fx="131.54968"
       fy="55.368198"
       r="9.2355022"
       gradientUnits="userSpaceOnUse"
       gradientTransform="matrix(1.4698675,0,0,1.3480482,-61.561168,4.5525642)" />
    <linearGradient
       id="linearGradient37"
       inkscape:collect="always">
      <stop
         style="stop-color:#55488d;stop-opacity:0;"
         offset="0"
         id="stop77" />
      <stop
         style="stop-color:#55488d;stop-opacity:1;"
         offset="1"
         id="stop78" />
    </linearGradient>
  </defs>
  <g
     inkscape:label="Layer 1"
     inkscape:groupmode="layer"
     id="layer1">
    <g
       id="g54"
       transform="translate(-28.785298,-6.5000475)">
      <g
         id="g1">
        <path
           style="opacity:1;fill:#dd7896;fill-rule:nonzero;stroke:none;stroke-width:1.32292;stroke-linecap:round;stroke-linejoin:round;stroke-dasharray:none;stroke-opacity:1"
           d="m 149.85174,88.717695 0,0 c -0.0396,-0.01673 0.0484,-0.639012 1.4731,-3.600221 1.12822,-2.344999 4.51173,-8.974372 10.49014,-16.357468 0.25123,-0.31026 0.5113,-0.627107 0.78015,-0.949733 3.44432,-4.13327 9.15205,-10.217393 17.03023,-15.285459 6.19028,-3.982236 14.38906,-7.776563 24.61443,-9.033347 2.15417,-0.268619 4.15215,-0.207982 5.96203,0.194611 1.71169,0.380754 3.23666,1.063716 4.54327,2.036232 1.24638,0.927686 2.27408,2.104395 3.06473,3.488761 0.75928,1.329442 1.29355,2.839533 1.59374,4.47805 0.57179,3.120938 0.29181,6.714656 -0.90195,10.291808 -1.13472,3.400224 -3.10508,6.799405 -5.93541,9.609862 -2.0432,2.034109 -3.82419,4.460859 -5.09718,7.390018 -1.23923,2.851468 -1.99256,6.168258 -2.05218,10.05212 -0.0359,2.355513 -0.0867,4.418028 -0.1968,6.255373 -0.11129,1.857991 -0.28299,3.482598 -0.55995,4.941828 -0.28298,1.49098 -0.6748,2.80286 -1.21771,4.00259 -0.56041,1.23842 -1.27255,2.33598 -2.15797,3.36153 -0.70076,0.81034 -1.38378,1.55692 -2.1052,2.24523 -0.76634,0.73115 -1.55115,1.3722 -2.39846,1.92775 -0.92303,0.60518 -1.88809,1.08732 -2.91981,1.46242 -1.16933,0.42513 -2.38612,0.69844 -3.63795,0.85906 -1.15977,0.14959 -2.30396,0.17324 -3.35476,0.14236 -0.73373,-0.0216 -1.46579,-0.0711 -2.18079,-0.13586 -1.95944,-0.17747 -4.18583,-0.5133 -5.99443,-0.77084 -4.8471,-0.69022 -8.90449,-1.12506 -13.32499,-0.69342 -2.84509,0.28137 -5.38255,1.01833 -7.60696,1.9851 -0.14099,0.0613 -0.28092,0.12356 -0.41981,0.18682 -1.96902,0.89683 -3.69272,1.96511 -5.1749,3.06299 -1.88432,1.39575 -3.2356,2.73834 -3.91161,3.42329 -0.71645,0.72592 -0.88426,0.8889 -0.91201,0.86969 -0.0277,-0.0192 0.0307,-0.26105 0.64002,-1.1001 0.60928,-0.83904 1.79919,-2.27843 3.66374,-3.84988 1.44882,-1.22107 3.19305,-2.42094 5.21527,-3.41699 0.14292,-0.0704 0.28709,-0.13974 0.43248,-0.20799 2.29639,-1.07786 4.94707,-1.9028 7.93973,-2.23285 4.58067,-0.51104 8.78576,-0.063 13.65039,0.62263 1.83357,0.25841 4.00838,0.58368 5.92534,0.75233 0.69439,0.0611 1.39752,0.10633 2.09663,0.1243 1.0034,0.0258 2.07029,-0.002 3.13529,-0.14442 1.16613,-0.15651 2.27744,-0.4161 3.32998,-0.8076 0.92682,-0.34473 1.78896,-0.78424 2.61362,-1.33441 0.75804,-0.50572 1.46978,-1.09476 2.17832,-1.78114 0.66919,-0.64826 1.31277,-1.36061 1.99277,-2.15757 0.79185,-0.92688 1.4193,-1.90713 1.91225,-3.01041 0.47903,-1.0721 0.8343,-2.26685 1.09491,-3.66609 0.25585,-1.37373 0.41784,-2.928833 0.52318,-4.750618 0.10418,-1.80199 0.15153,-3.836219 0.18495,-6.187863 0.0576,-4.075992 0.84811,-7.597438 2.17618,-10.647616 1.36361,-3.131789 3.27103,-5.713897 5.44185,-7.857636 2.65144,-2.624271 4.5092,-5.809441 5.58441,-9.002477 1.13224,-3.362421 1.39174,-6.700405 0.88275,-9.551476 -0.26671,-1.49392 -0.74205,-2.848356 -1.40542,-4.025695 -0.68948,-1.223687 -1.58005,-2.253976 -2.65721,-3.067327 -1.12835,-0.851999 -2.4638,-1.467571 -3.9978,-1.820398 -1.6257,-0.373917 -3.46241,-0.450071 -5.49453,-0.210749 -9.98473,1.195461 -18.01541,4.864839 -24.11145,8.738107 -7.75735,4.928826 -13.43813,10.87769 -16.89456,14.921113 -0.26968,0.315485 -0.53082,0.625324 -0.7833,0.928682 -5.8934,7.080965 -9.68256,13.816533 -10.86226,15.923874 -1.59555,2.850184 -1.85891,3.395851 -1.89852,3.379124 z"
           id="path1"
           sodipodi:nodetypes="cssssssc"
           inkscape:original-d="m 149.85174,88.717695 c 0,0 16.89361,-39.999281 54.46908,-44.558565 17.26184,-2.094494 18.46074,18.227362 7.70709,28.888728 -4.32379,4.286684 -7.26701,10.052281 -7.38369,17.973691 -0.13807,9.373981 -0.50715,14.110881 -3.92386,18.088151 -2.67857,3.11803 -5.35842,5.60169 -10.58805,6.28759 -6.77638,0.88877 -15.19619,-2.41541 -24.83131,-1.4063 -11.77451,1.23318 -17.95827,10.16785 -17.95827,10.16785"
           inkscape:path-effect="#path-effect2" />
        <path
           style="opacity:1;fill:#dd7896;fill-rule:nonzero;stroke:none;stroke-width:1.32292;stroke-linecap:round;stroke-linejoin:round;stroke-dasharray:none;stroke-opacity:1"
           d="m 183.50259,121.06269 c 1.2958,0.44741 3.4207,1.37382 5.73881,3.17066 1.4902,1.1551 3.05483,2.66515 4.52013,4.60387 0.10866,0.14377 0.21669,0.28978 0.324,0.43806 1.86573,2.57796 3.92665,6.45747 4.62062,11.35259 a 0.03965115,4.871797e-4 79.862679 0 0 0.004,0.0246 c 0.36464,2.08975 0.57886,4.47881 0.38987,6.96951 -0.16727,2.20449 -0.65063,4.48832 -1.62544,6.70158 a 0.00499627,0.10269752 25.915432 0 0 -0.007,0.0172 c -1.13695,2.77228 -2.08405,5.84811 -2.41728,8.99815 -0.16462,1.55619 -0.17883,3.12622 0.006,4.68379 0.18603,1.56664 0.57225,3.10963 1.20001,4.60544 a 0.48160492,0.14088501 80.861531 0 0 0.0284,0.0597 c 0.31939,0.5863 0.56566,1.24859 0.71445,1.92822 0.15309,0.69929 0.19945,1.39959 0.13012,2.05021 -0.0723,0.67831 -0.26792,1.28498 -0.58114,1.79269 -0.16299,0.26421 -0.35812,0.50231 -0.58579,0.71233 -0.22561,0.20813 -0.48467,0.39007 -0.77889,0.54305 -0.42944,0.14793 -0.84875,0.23238 -1.2612,0.26498 -0.42124,0.0333 -0.83927,0.0128 -1.25808,-0.0519 -0.83368,-0.12889 -1.66345,-0.43179 -2.52371,-0.83014 -0.86865,-0.40222 -1.69424,-0.86433 -2.60402,-1.331 -0.87826,-0.4505 -1.80077,-0.88596 -2.76283,-1.16846 -1.36203,-0.44186 -2.743,-0.7034 -4.10956,-0.87818 -1.37698,-0.17611 -2.77286,-0.26759 -4.10603,-0.35809 -1.38476,-0.094 -2.69544,-0.18659 -3.99119,-0.36293 -1.3095,-0.17821 -2.54658,-0.43528 -3.73126,-0.83664 -3.86485,-1.785 -7.22911,-4.1694 -10.11467,-6.69684 -2.54377,-2.22808 -4.75774,-4.605 -6.63923,-6.84546 -0.59711,-0.71104 -1.1808,-1.43147 -1.75143,-2.15943 l 0.007,0.01 c -4.38252,-5.63886 -6.52088,-10.29359 -7.53713,-13.45993 0.69183,3.15375 2.1381,8.34048 6.27844,14.37852 a 0.01032448,8.6420761e-5 53.915063 0 0 0.007,0.01 c 0.55413,0.76423 1.12668,1.52034 1.71783,2.26479 1.86292,2.34603 4.10421,4.82856 6.72315,7.15548 2.97994,2.64767 6.50892,5.14763 10.59829,7.00343 a 0.75923451,0.27264294 41.357966 0 0 0.0865,0.0343 c 1.34602,0.44836 2.72372,0.71564 4.13004,0.88759 1.36573,0.16699 2.7357,0.24169 4.11544,0.31227 1.34657,0.0689 2.69267,0.13345 4.01506,0.27796 1.30635,0.14276 2.58986,0.36348 3.83875,0.74357 a 0.03573043,3.4872744e-4 17.058273 0 0 0.0255,0.008 c 0.83049,0.21747 1.66453,0.57955 2.54148,1.00311 0.8564,0.41364 1.77573,0.89782 2.68363,1.29548 0.92757,0.40629 1.8945,0.74702 2.90714,0.88686 0.51242,0.0708 1.03478,0.0899 1.568,0.0412 0.53844,-0.0492 1.0815,-0.16691 1.63045,-0.36505 a 0.64788063,0.30140189 1.5585166 0 0 0.0789,-0.0341 c 0.41271,-0.21342 0.78391,-0.47331 1.11052,-0.77781 0.31519,-0.29386 0.58443,-0.62516 0.80779,-0.98831 0.42901,-0.6975 0.67855,-1.49574 0.77205,-2.33757 0.0895,-0.80592 0.0356,-1.64887 -0.13771,-2.47151 -0.16589,-0.78729 -0.44208,-1.55938 -0.80806,-2.25583 -0.5621,-1.36519 -0.90717,-2.77659 -1.07043,-4.21723 -0.16353,-1.44301 -0.14384,-2.90844 0.0189,-4.37497 0.32962,-2.97072 1.24192,-5.90688 2.35172,-8.59234 1.0586,-2.38278 1.57586,-4.83013 1.74522,-7.16867 0.19118,-2.63998 -0.0598,-5.14959 -0.4819,-7.31654 -0.79165,-5.15669 -3.04429,-9.1847 -5.09939,-11.79352 -0.11837,-0.15026 -0.23764,-0.29787 -0.35769,-0.44282 -1.62047,-1.95663 -3.36021,-3.40498 -4.99072,-4.45776 -2.52959,-1.63329 -4.79421,-2.31403 -6.10362,-2.65502 z"
           id="path2"
           inkscape:original-d="m 183.50259,121.06269 c 8.58199,2.59474 14.59612,10.76646 15.87879,19.46562 0.87058,4.70682 0.71055,9.65617 -1.2504,14.08578 -2.29001,5.56105 -3.65662,11.98765 -1.25204,17.75438 1.37282,2.55453 1.51539,6.44473 -1.43451,7.95537 -3.9865,1.42446 -7.29611,-1.98474 -10.90074,-2.98561 -5.20343,-1.63868 -10.87867,-0.59402 -16.04357,-2.33707 -7.59565,-3.47128 -13.81062,-9.46291 -18.7922,-16.07189 -3.06598,-4.20113 -5.54988,-8.88084 -6.90779,-13.91923"
           inkscape:path-effect="#path-effect6" />
        <path
           style="opacity:1;fill:#dd7896;fill-rule:nonzero;stroke:none;stroke-width:0.264583;stroke-opacity:1"
           d="m 162.37248,162.37248 v 0 c -0.01,0.027 -0.7151,-0.0791 -3.20492,-1.33175 -1.08316,-0.54496 -2.37702,-1.26713 -3.7964,-2.19277 -1.05198,-0.68605 -2.28708,-1.55186 -3.61098,-2.62068 -2.61644,-2.1123 -5.70385,-5.11694 -8.435,-9.2557 -2.6418,-4.00336 -4.83493,-8.89434 -6.04476,-14.79752 -1.05241,-5.19372 -1.48534,-9.71488 -1.47748,-13.63065 0.004,-1.92964 0.1127,-3.78661 0.32606,-5.5662 0.6717,-5.60236 2.34614,-10.16375 4.71167,-13.756483 2.70637,-4.110394 6.09582,-6.625147 9.24682,-8.157645 0.38319,-0.186365 0.76153,-0.357612 1.1332,-0.515085 4.47706,-1.896892 8.81687,-2.018865 11.07459,-2.017349 -2.3343,0.220818 -6.41664,0.905724 -10.60174,3.035141 -0.34368,0.174868 -0.69219,0.362325 -1.04388,0.563454 -2.89497,1.655629 -5.8959,4.175656 -8.25754,8.073277 -2.06393,3.40628 -3.53612,7.69571 -4.13917,13.02241 -0.19191,1.69515 -0.293,3.47075 -0.30227,5.32594 -0.0188,3.7634 0.32962,8.15042 1.25803,13.25219 1.0194,5.683 2.92711,10.44833 5.29199,14.43161 2.44721,4.12194 5.27436,7.21876 7.73108,9.44055 1.24104,1.12237 2.40951,2.041 3.41741,2.7672 1.35766,0.9782 2.6086,1.75211 3.65383,2.34489 2.40544,1.36418 3.07908,1.55816 3.06946,1.58517 z"
           id="path58"
           sodipodi:nodetypes="csc"
           inkscape:original-d="m 162.37248,162.37248 c 0,0 -19.62803,-6.9953 -24.12792,-30.38392 -5.56955,-28.94825 6.5442,-42.637613 24.05072,-43.457912"
           inkscape:path-effect="#path-effect59" />
      </g>
      <g
         id="g49"
         transform="matrix(-1,0,0,1,269.23726,0)">
        <path
           style="opacity:1;fill:#76beb3;fill-rule:nonzero;stroke:none;stroke-width:1.32292;stroke-linecap:round;stroke-linejoin:round;stroke-dasharray:none;stroke-opacity:1"
           d="m 149.85174,88.717695 0,0 c -0.0396,-0.01673 0.0484,-0.639012 1.4731,-3.600221 1.12822,-2.344999 4.51173,-8.974372 10.49014,-16.357468 0.25123,-0.31026 0.5113,-0.627107 0.78015,-0.949733 3.44432,-4.13327 9.15205,-10.217393 17.03023,-15.285459 6.19028,-3.982236 14.38906,-7.776563 24.61443,-9.033347 2.15417,-0.268619 4.15215,-0.207982 5.96203,0.194611 1.71169,0.380754 3.23666,1.063716 4.54327,2.036232 1.24638,0.927686 2.27408,2.104395 3.06473,3.488761 0.75928,1.329442 1.29355,2.839533 1.59374,4.47805 0.57179,3.120938 0.29181,6.714656 -0.90195,10.291808 -1.13472,3.400224 -3.10508,6.799405 -5.93541,9.609862 -2.0432,2.034109 -3.82419,4.460859 -5.09718,7.390018 -1.23923,2.851468 -1.99256,6.168258 -2.05218,10.05212 -0.0359,2.355513 -0.0867,4.418028 -0.1968,6.255373 -0.11129,1.857991 -0.28299,3.482598 -0.55995,4.941828 -0.28298,1.49098 -0.6748,2.80286 -1.21771,4.00259 -0.56041,1.23842 -1.27255,2.33598 -2.15797,3.36153 -0.70076,0.81034 -1.38378,1.55692 -2.1052,2.24523 -0.76634,0.73115 -1.55115,1.3722 -2.39846,1.92775 -0.92303,0.60518 -1.88809,1.08732 -2.91981,1.46242 -1.16933,0.42513 -2.38612,0.69844 -3.63795,0.85906 -1.15977,0.14959 -2.30396,0.17324 -3.35476,0.14236 -0.73373,-0.0216 -1.46579,-0.0711 -2.18079,-0.13586 -1.95944,-0.17747 -4.18583,-0.5133 -5.99443,-0.77084 -4.8471,-0.69022 -8.90449,-1.12506 -13.32499,-0.69342 -2.84509,0.28137 -5.38255,1.01833 -7.60696,1.9851 -0.14099,0.0613 -0.28092,0.12356 -0.41981,0.18682 -1.96902,0.89683 -3.69272,1.96511 -5.1749,3.06299 -1.88432,1.39575 -3.2356,2.73834 -3.91161,3.42329 -0.71645,0.72592 -0.88426,0.8889 -0.91201,0.86969 -0.0277,-0.0192 0.0307,-0.26105 0.64002,-1.1001 0.60928,-0.83904 1.79919,-2.27843 3.66374,-3.84988 1.44882,-1.22107 3.19305,-2.42094 5.21527,-3.41699 0.14292,-0.0704 0.28709,-0.13974 0.43248,-0.20799 2.29639,-1.07786 4.94707,-1.9028 7.93973,-2.23285 4.58067,-0.51104 8.78576,-0.063 13.65039,0.62263 1.83357,0.25841 4.00838,0.58368 5.92534,0.75233 0.69439,0.0611 1.39752,0.10633 2.09663,0.1243 1.0034,0.0258 2.07029,-0.002 3.13529,-0.14442 1.16613,-0.15651 2.27744,-0.4161 3.32998,-0.8076 0.92682,-0.34473 1.78896,-0.78424 2.61362,-1.33441 0.75804,-0.50572 1.46978,-1.09476 2.17832,-1.78114 0.66919,-0.64826 1.31277,-1.36061 1.99277,-2.15757 0.79185,-0.92688 1.4193,-1.90713 1.91225,-3.01041 0.47903,-1.0721 0.8343,-2.26685 1.09491,-3.66609 0.25585,-1.37373 0.41784,-2.928833 0.52318,-4.750618 0.10418,-1.80199 0.15153,-3.836219 0.18495,-6.187863 0.0576,-4.075992 0.84811,-7.597438 2.17618,-10.647616 1.36361,-3.131789 3.27103,-5.713897 5.44185,-7.857636 2.65144,-2.624271 4.5092,-5.809441 5.58441,-9.002477 1.13224,-3.362421 1.39174,-6.700405 0.88275,-9.551476 -0.26671,-1.49392 -0.74205,-2.848356 -1.40542,-4.025695 -0.68948,-1.223687 -1.58005,-2.253976 -2.65721,-3.067327 -1.12835,-0.851999 -2.4638,-1.467571 -3.9978,-1.820398 -1.6257,-0.373917 -3.46241,-0.450071 -5.49453,-0.210749 -9.98473,1.195461 -18.01541,4.864839 -24.11145,8.738107 -7.75735,4.928826 -13.43813,10.87769 -16.89456,14.921113 -0.26968,0.315485 -0.53082,0.625324 -0.7833,0.928682 -5.8934,7.080965 -9.68256,13.816533 -10.86226,15.923874 -1.59555,2.850184 -1.85891,3.395851 -1.89852,3.379124 z"
           id="path7"
           sodipodi:nodetypes="cssssssc"
           inkscape:original-d="m 149.85174,88.717695 c 0,0 16.89361,-39.999281 54.46908,-44.558565 17.26184,-2.094494 18.46074,18.227362 7.70709,28.888728 -4.32379,4.286684 -7.26701,10.052281 -7.38369,17.973691 -0.13807,9.373981 -0.50715,14.110881 -3.92386,18.088151 -2.67857,3.11803 -5.35842,5.60169 -10.58805,6.28759 -6.77638,0.88877 -15.19619,-2.41541 -24.83131,-1.4063 -11.77451,1.23318 -17.95827,10.16785 -17.95827,10.16785"
           inkscape:path-effect="#path-effect51" />
        <path
           style="opacity:1;fill:#76beb3;fill-rule:nonzero;stroke:none;stroke-width:1.32292;stroke-linecap:round;stroke-linejoin:round;stroke-dasharray:none;stroke-opacity:1"
           d="m 183.50259,121.06269 c 1.2958,0.44741 3.4207,1.37382 5.73881,3.17066 1.4902,1.1551 3.05483,2.66515 4.52013,4.60387 0.10866,0.14377 0.21669,0.28978 0.324,0.43806 1.86573,2.57796 3.92665,6.45747 4.62062,11.35259 a 0.03965115,4.871797e-4 79.862679 0 0 0.004,0.0246 c 0.36464,2.08975 0.57886,4.47881 0.38987,6.96951 -0.16727,2.20449 -0.65063,4.48832 -1.62544,6.70158 a 0.00499627,0.10269752 25.915432 0 0 -0.007,0.0172 c -1.13695,2.77228 -2.08405,5.84811 -2.41728,8.99815 -0.16462,1.55619 -0.17883,3.12622 0.006,4.68379 0.18603,1.56664 0.57225,3.10963 1.20001,4.60544 a 0.48160492,0.14088501 80.861531 0 0 0.0284,0.0597 c 0.31939,0.5863 0.56566,1.24859 0.71445,1.92822 0.15309,0.69929 0.19945,1.39959 0.13012,2.05021 -0.0723,0.67831 -0.26792,1.28498 -0.58114,1.79269 -0.16299,0.26421 -0.35812,0.50231 -0.58579,0.71233 -0.22561,0.20813 -0.48467,0.39007 -0.77889,0.54305 -0.42944,0.14793 -0.84875,0.23238 -1.2612,0.26498 -0.42124,0.0333 -0.83927,0.0128 -1.25808,-0.0519 -0.83368,-0.12889 -1.66345,-0.43179 -2.52371,-0.83014 -0.86865,-0.40222 -1.69424,-0.86433 -2.60402,-1.331 -0.87826,-0.4505 -1.80077,-0.88596 -2.76283,-1.16846 -1.36203,-0.44186 -2.743,-0.7034 -4.10956,-0.87818 -1.37698,-0.17611 -2.77286,-0.26759 -4.10603,-0.35809 -1.38476,-0.094 -2.69544,-0.18659 -3.99119,-0.36293 -1.3095,-0.17821 -2.54658,-0.43528 -3.73126,-0.83664 -3.86485,-1.785 -7.22911,-4.1694 -10.11467,-6.69684 -2.54377,-2.22808 -4.75774,-4.605 -6.63923,-6.84546 -0.59711,-0.71104 -1.1808,-1.43147 -1.75143,-2.15943 l 0.007,0.01 c -4.38252,-5.63886 -6.52088,-10.29359 -7.53713,-13.45993 0.69183,3.15375 2.1381,8.34048 6.27844,14.37852 a 0.01032448,8.6420761e-5 53.915063 0 0 0.007,0.01 c 0.55413,0.76423 1.12668,1.52034 1.71783,2.26479 1.86292,2.34603 4.10421,4.82856 6.72315,7.15548 2.97994,2.64767 6.50892,5.14763 10.59829,7.00343 a 0.75923451,0.27264294 41.357966 0 0 0.0865,0.0343 c 1.34602,0.44836 2.72372,0.71564 4.13004,0.88759 1.36573,0.16699 2.7357,0.24169 4.11544,0.31227 1.34657,0.0689 2.69267,0.13345 4.01506,0.27796 1.30635,0.14276 2.58986,0.36348 3.83875,0.74357 a 0.03573043,3.4872744e-4 17.058273 0 0 0.0255,0.008 c 0.83049,0.21747 1.66453,0.57955 2.54148,1.00311 0.8564,0.41364 1.77573,0.89782 2.68363,1.29548 0.92757,0.40629 1.8945,0.74702 2.90714,0.88686 0.51242,0.0708 1.03478,0.0899 1.568,0.0412 0.53844,-0.0492 1.0815,-0.16691 1.63045,-0.36505 a 0.64788063,0.30140189 1.5585166 0 0 0.0789,-0.0341 c 0.41271,-0.21342 0.78391,-0.47331 1.11052,-0.77781 0.31519,-0.29386 0.58443,-0.62516 0.80779,-0.98831 0.42901,-0.6975 0.67855,-1.49574 0.77205,-2.33757 0.0895,-0.80592 0.0356,-1.64887 -0.13771,-2.47151 -0.16589,-0.78729 -0.44208,-1.55938 -0.80806,-2.25583 -0.5621,-1.36519 -0.90717,-2.77659 -1.07043,-4.21723 -0.16353,-1.44301 -0.14384,-2.90844 0.0189,-4.37497 0.32962,-2.97072 1.24192,-5.90688 2.35172,-8.59234 1.0586,-2.38278 1.57586,-4.83013 1.74522,-7.16867 0.19118,-2.63998 -0.0598,-5.14959 -0.4819,-7.31654 -0.79165,-5.15669 -3.04429,-9.1847 -5.09939,-11.79352 -0.11837,-0.15026 -0.23764,-0.29787 -0.35769,-0.44282 -1.62047,-1.95663 -3.36021,-3.40498 -4.99072,-4.45776 -2.52959,-1.63329 -4.79421,-2.31403 -6.10362,-2.65502 z"
           id="path8"
           inkscape:path-effect="#path-effect55"
           inkscape:original-d="m 183.50259,121.06269 c 8.58199,2.59474 14.59612,10.76646 15.87879,19.46562 0.87058,4.70682 0.71055,9.65617 -1.2504,14.08578 -2.29001,5.56105 -3.65662,11.98765 -1.25204,17.75438 1.37282,2.55453 1.51539,6.44473 -1.43451,7.95537 -3.9865,1.42446 -7.29611,-1.98474 -10.90074,-2.98561 -5.20343,-1.63868 -10.87867,-0.59402 -16.04357,-2.33707 -7.59565,-3.47128 -13.81062,-9.46291 -18.7922,-16.07189 -3.06598,-4.20113 -5.54988,-8.88084 -6.90779,-13.91923" />
        <path
           style="opacity:1;fill:#76beb3;fill-rule:nonzero;stroke:none;stroke-width:0.264583;stroke-opacity:1"
           d="m 162.37248,162.37248 v 0 c -0.01,0.027 -0.7151,-0.0791 -3.20492,-1.33175 -1.08316,-0.54496 -2.37702,-1.26713 -3.7964,-2.19277 -1.05198,-0.68605 -2.28708,-1.55186 -3.61098,-2.62068 -2.61644,-2.1123 -5.70385,-5.11694 -8.435,-9.2557 -2.6418,-4.00336 -4.83493,-8.89434 -6.04476,-14.79752 -1.05241,-5.19372 -1.48534,-9.71488 -1.47748,-13.63065 0.004,-1.92964 0.1127,-3.78661 0.32606,-5.5662 0.6717,-5.60236 2.34614,-10.16375 4.71167,-13.756483 2.70637,-4.110394 6.09582,-6.625147 9.24682,-8.157645 0.38319,-0.186365 0.76153,-0.357612 1.1332,-0.515085 4.47706,-1.896892 8.81687,-2.018865 11.07459,-2.017349 -2.3343,0.220818 -6.41664,0.905724 -10.60174,3.035141 -0.34368,0.174868 -0.69219,0.362325 -1.04388,0.563454 -2.89497,1.655629 -5.8959,4.175656 -8.25754,8.073277 -2.06393,3.40628 -3.53612,7.69571 -4.13917,13.02241 -0.19191,1.69515 -0.293,3.47075 -0.30227,5.32594 -0.0188,3.7634 0.32962,8.15042 1.25803,13.25219 1.0194,5.683 2.92711,10.44833 5.29199,14.43161 2.44721,4.12194 5.27436,7.21876 7.73108,9.44055 1.24104,1.12237 2.40951,2.041 3.41741,2.7672 1.35766,0.9782 2.6086,1.75211 3.65383,2.34489 2.40544,1.36418 3.07908,1.55816 3.06946,1.58517 z"
           id="path49"
           sodipodi:nodetypes="csc"
           inkscape:path-effect="#path-effect98"
           inkscape:original-d="m 162.37248,162.37248 c 0,0 -19.62803,-6.9953 -24.12792,-30.38392 -5.56955,-28.94825 6.5442,-42.637613 24.05072,-43.457912" />
      </g>
      <circle
         style="fill:url(#radialGradient46);stroke:none;stroke-width:0.276432"
         id="path37"
         cx="134.69241"
         cy="83.691734"
         r="9.2355022" />
    </g>
  </g>
</svg>
