<svg xmlns="http://www.w3.org/2000/svg" class="donate-icon" aria-hidden="true" viewBox="0 0 211.667 211.667"><g transform="translate(-28.785 -6.5)"><path d="M149.852 88.718c-.04-.017.048-.64 1.473-3.6 1.128-2.346 4.512-8.975 10.49-16.358q.377-.465.78-.95c3.444-4.133 9.152-10.217 17.03-15.285 6.19-3.982 14.39-7.777 24.615-9.034 2.154-.268 4.152-.208 5.962.195 1.712.38 3.236 1.064 4.543 2.036a11.3 11.3 0 0 1 3.065 3.49c.76 1.329 1.293 2.839 1.594 4.477.571 3.121.291 6.715-.902 10.292-1.135 3.4-3.105 6.8-5.936 9.61-2.043 2.034-3.824 4.46-5.097 7.39-1.24 2.851-1.993 6.168-2.052 10.052-.036 2.355-.087 4.418-.197 6.255-.111 1.858-.283 3.483-.56 4.942-.283 1.491-.675 2.803-1.218 4.003a13.8 13.8 0 0 1-2.158 3.361c-.7.81-1.383 1.557-2.105 2.245a17 17 0 0 1-2.398 1.928 14 14 0 0 1-2.92 1.463c-1.17.425-2.386.698-3.638.859a21.4 21.4 0 0 1-3.355.142 36 36 0 0 1-2.18-.136c-1.96-.177-4.186-.513-5.995-.77-4.847-.69-8.904-1.126-13.325-.694a25.2 25.2 0 0 0-8.027 2.172 28.7 28.7 0 0 0-5.175 3.063 33 33 0 0 0-3.911 3.423c-.717.726-.885.889-.912.87s.03-.261.64-1.1c.609-.84 1.799-2.279 3.663-3.85a25.8 25.8 0 0 1 5.648-3.625 25.1 25.1 0 0 1 7.94-2.233c4.58-.511 8.786-.063 13.65.623 1.834.258 4.009.583 5.926.752a34 34 0 0 0 2.096.124c1.004.026 2.07-.002 3.136-.144a15.4 15.4 0 0 0 3.33-.808 12.6 12.6 0 0 0 2.613-1.334 15.4 15.4 0 0 0 2.179-1.781c.669-.649 1.312-1.36 1.992-2.158a12.3 12.3 0 0 0 1.913-3.01c.479-1.072.834-2.267 1.094-3.666.256-1.374.418-2.93.524-4.751.104-1.802.151-3.836.185-6.188.057-4.076.848-7.597 2.176-10.647 1.363-3.132 3.27-5.714 5.442-7.858 2.651-2.624 4.509-5.81 5.584-9.003 1.132-3.362 1.392-6.7.883-9.551-.267-1.494-.742-2.848-1.406-4.026a9.9 9.9 0 0 0-2.657-3.067c-1.128-.852-2.464-1.468-3.998-1.82-1.625-.374-3.462-.45-5.494-.211-9.985 1.195-18.016 4.865-24.112 8.738-7.757 4.929-13.438 10.878-16.894 14.921q-.405.474-.783.929c-5.894 7.08-9.683 13.816-10.863 15.924-1.595 2.85-1.859 3.395-1.898 3.379M183.503 121.063c1.295.447 3.42 1.374 5.738 3.17a24.5 24.5 0 0 1 4.845 5.042c1.865 2.578 3.926 6.458 4.62 11.353l.004.024c.365 2.09.579 4.48.39 6.97-.167 2.204-.65 4.488-1.625 6.702a.005.103 25.915 0 0-.007.017c-1.137 2.772-2.084 5.848-2.418 8.998a21 21 0 0 0 .006 4.684c.186 1.566.573 3.11 1.2 4.605a.482.14 80.862 0 0 .029.06c.32.586.565 1.248.714 1.928.153.7.2 1.4.13 2.05-.072.679-.268 1.285-.58 1.793a3.4 3.4 0 0 1-.587.712q-.337.313-.779.543a5 5 0 0 1-1.26.265 5.4 5.4 0 0 1-1.259-.052c-.833-.128-1.663-.431-2.524-.83-.868-.402-1.694-.864-2.604-1.33-.878-.451-1.8-.887-2.762-1.17-1.362-.441-2.743-.703-4.11-.877-1.377-.176-2.773-.268-4.106-.358-1.385-.094-2.695-.187-3.991-.363-1.31-.179-2.547-.436-3.731-.837-3.865-1.785-7.23-4.17-10.115-6.697-2.544-2.228-4.758-4.605-6.64-6.845a83 83 0 0 1-1.75-2.16l.006.01c-4.382-5.639-6.52-10.293-7.537-13.46.692 3.154 2.138 8.34 6.279 14.379l.007.01q.83 1.147 1.717 2.265c1.863 2.346 4.105 4.828 6.724 7.155 2.98 2.648 6.508 5.148 10.598 7.004a.76.273 41.358 0 0 .086.034c1.346.448 2.724.715 4.13.887 1.366.167 2.736.242 4.116.313 1.346.069 2.692.133 4.015.278 1.306.142 2.59.363 3.839.743l.025.008c.83.218 1.665.58 2.542 1.003.856.414 1.775.898 2.683 1.296.928.406 1.895.747 2.907.887.513.07 1.035.09 1.568.04a6.5 6.5 0 0 0 1.63-.364.648.301 1.559 0 0 .08-.034 5 5 0 0 0 1.11-.778q.473-.442.808-.988c.429-.698.679-1.496.772-2.338a7.9 7.9 0 0 0-.138-2.471 8.8 8.8 0 0 0-.808-2.256 15.7 15.7 0 0 1-1.07-4.218 19.6 19.6 0 0 1 .019-4.374c.33-2.971 1.242-5.907 2.352-8.593 1.058-2.383 1.575-4.83 1.745-7.169.19-2.64-.06-5.15-.482-7.316a25.5 25.5 0 0 0-5.1-11.794 21.957 21.957 0 0 0-5.348-4.9 20.6 20.6 0 0 0-6.104-2.655z" style="opacity:1;fill:currentColor;fill-rule:nonzero;stroke:none;stroke-width:1.32292;stroke-linecap:round;stroke-linejoin:round;stroke-dasharray:none;stroke-opacity:1;stroke:currentColor;stroke-width:10;stroke-linejoin:round"/><path d="M162.372 162.372c-.01.027-.715-.079-3.204-1.331a39 39 0 0 1-3.797-2.193 44 44 0 0 1-3.61-2.62 40.7 40.7 0 0 1-8.436-9.256c-2.642-4.004-4.835-8.895-6.045-14.798-1.052-5.194-1.485-9.715-1.477-13.63a48 48 0 0 1 .326-5.567c.672-5.602 2.346-10.164 4.712-13.756 2.706-4.11 6.095-6.625 9.246-8.158q.576-.28 1.134-.515c4.477-1.897 8.817-2.019 11.074-2.017-2.334.22-6.416.905-10.601 3.035q-.517.262-1.044.563c-2.895 1.656-5.896 4.176-8.258 8.074-2.064 3.406-3.536 7.695-4.14 13.022a50 50 0 0 0-.301 5.326c-.02 3.763.33 8.15 1.258 13.252 1.02 5.683 2.927 10.448 5.292 14.432a40.9 40.9 0 0 0 11.148 12.207 40 40 0 0 0 3.654 2.345c2.405 1.364 3.08 1.558 3.07 1.585" style="opacity:1;fill:currentColor;fill-rule:nonzero;stroke:none;stroke-width:.264583;stroke-opacity:1;stroke:currentColor;stroke-width:10;stroke-linejoin:round"/><path d="M149.852 88.718c-.04-.017.048-.64 1.473-3.6 1.128-2.346 4.512-8.975 10.49-16.358q.377-.465.78-.95c3.444-4.133 9.152-10.217 17.03-15.285 6.19-3.982 14.39-7.777 24.615-9.034 2.154-.268 4.152-.208 5.962.195 1.712.38 3.236 1.064 4.543 2.036a11.3 11.3 0 0 1 3.065 3.49c.76 1.329 1.293 2.839 1.594 4.477.571 3.121.291 6.715-.902 10.292-1.135 3.4-3.105 6.8-5.936 9.61-2.043 2.034-3.824 4.46-5.097 7.39-1.24 2.851-1.993 6.168-2.052 10.052-.036 2.355-.087 4.418-.197 6.255-.111 1.858-.283 3.483-.56 4.942-.283 1.491-.675 2.803-1.218 4.003a13.8 13.8 0 0 1-2.158 3.361c-.7.81-1.383 1.557-2.105 2.245a17 17 0 0 1-2.398 1.928 14 14 0 0 1-2.92 1.463c-1.17.425-2.386.698-3.638.859a21.4 21.4 0 0 1-3.355.142 36 36 0 0 1-2.18-.136c-1.96-.177-4.186-.513-5.995-.77-4.847-.69-8.904-1.126-13.325-.694a25.2 25.2 0 0 0-8.027 2.172 28.7 28.7 0 0 0-5.175 3.063 33 33 0 0 0-3.911 3.423c-.717.726-.885.889-.912.87s.03-.261.64-1.1c.609-.84 1.799-2.279 3.663-3.85a25.8 25.8 0 0 1 5.648-3.625 25.1 25.1 0 0 1 7.94-2.233c4.58-.511 8.786-.063 13.65.623 1.834.258 4.009.583 5.926.752a34 34 0 0 0 2.096.124c1.004.026 2.07-.002 3.136-.144a15.4 15.4 0 0 0 3.33-.808 12.6 12.6 0 0 0 2.613-1.334 15.4 15.4 0 0 0 2.179-1.781c.669-.649 1.312-1.36 1.992-2.158a12.3 12.3 0 0 0 1.913-3.01c.479-1.072.834-2.267 1.094-3.666.256-1.374.418-2.93.524-4.751.104-1.802.151-3.836.185-6.188.057-4.076.848-7.597 2.176-10.647 1.363-3.132 3.27-5.714 5.442-7.858 2.651-2.624 4.509-5.81 5.584-9.003 1.132-3.362 1.392-6.7.883-9.551-.267-1.494-.742-2.848-1.406-4.026a9.9 9.9 0 0 0-2.657-3.067c-1.128-.852-2.464-1.468-3.998-1.82-1.625-.374-3.462-.45-5.494-.211-9.985 1.195-18.016 4.865-24.112 8.738-7.757 4.929-13.438 10.878-16.894 14.921q-.405.474-.783.929c-5.894 7.08-9.683 13.816-10.863 15.924-1.595 2.85-1.859 3.395-1.898 3.379M183.503 121.063c1.295.447 3.42 1.374 5.738 3.17a24.5 24.5 0 0 1 4.845 5.042c1.865 2.578 3.926 6.458 4.62 11.353l.004.024c.365 2.09.579 4.48.39 6.97-.167 2.204-.65 4.488-1.625 6.702a.005.103 25.915 0 0-.007.017c-1.137 2.772-2.084 5.848-2.418 8.998a21 21 0 0 0 .006 4.684c.186 1.566.573 3.11 1.2 4.605a.482.14 80.862 0 0 .029.06c.32.586.565 1.248.714 1.928.153.7.2 1.4.13 2.05-.072.679-.268 1.285-.58 1.793a3.4 3.4 0 0 1-.587.712q-.337.313-.779.543a5 5 0 0 1-1.26.265 5.4 5.4 0 0 1-1.259-.052c-.833-.128-1.663-.431-2.524-.83-.868-.402-1.694-.864-2.604-1.33-.878-.451-1.8-.887-2.762-1.17-1.362-.441-2.743-.703-4.11-.877-1.377-.176-2.773-.268-4.106-.358-1.385-.094-2.695-.187-3.991-.363-1.31-.179-2.547-.436-3.731-.837-3.865-1.785-7.23-4.17-10.115-6.697-2.544-2.228-4.758-4.605-6.64-6.845a83 83 0 0 1-1.75-2.16l.006.01c-4.382-5.639-6.52-10.293-7.537-13.46.692 3.154 2.138 8.34 6.279 14.379l.007.01q.83 1.147 1.717 2.265c1.863 2.346 4.105 4.828 6.724 7.155 2.98 2.648 6.508 5.148 10.598 7.004a.76.273 41.358 0 0 .086.034c1.346.448 2.724.715 4.13.887 1.366.167 2.736.242 4.116.313 1.346.069 2.692.133 4.015.278 1.306.142 2.59.363 3.839.743l.025.008c.83.218 1.665.58 2.542 1.003.856.414 1.775.898 2.683 1.296.928.406 1.895.747 2.907.887.513.07 1.035.09 1.568.04a6.5 6.5 0 0 0 1.63-.364.648.301 1.559 0 0 .08-.034 5 5 0 0 0 1.11-.778q.473-.442.808-.988c.429-.698.679-1.496.772-2.338a7.9 7.9 0 0 0-.138-2.471 8.8 8.8 0 0 0-.808-2.256 15.7 15.7 0 0 1-1.07-4.218 19.6 19.6 0 0 1 .019-4.374c.33-2.971 1.242-5.907 2.352-8.593 1.058-2.383 1.575-4.83 1.745-7.169.19-2.64-.06-5.15-.482-7.316a25.5 25.5 0 0 0-5.1-11.794 21.957 21.957 0 0 0-5.348-4.9 20.6 20.6 0 0 0-6.104-2.655z" style="opacity:1;fill:currentColor;fill-rule:nonzero;stroke:none;stroke-width:1.32292;stroke-linecap:round;stroke-linejoin:round;stroke-dasharray:none;stroke-opacity:1;stroke:currentColor;stroke-width:10;stroke-linejoin:round" transform="matrix(-1 0 0 1 269.237 0)"/><path d="M162.372 162.372c-.01.027-.715-.079-3.204-1.331a39 39 0 0 1-3.797-2.193 44 44 0 0 1-3.61-2.62 40.7 40.7 0 0 1-8.436-9.256c-2.642-4.004-4.835-8.895-6.045-14.798-1.052-5.194-1.485-9.715-1.477-13.63a48 48 0 0 1 .326-5.567c.672-5.602 2.346-10.164 4.712-13.756 2.706-4.11 6.095-6.625 9.246-8.158q.576-.28 1.134-.515c4.477-1.897 8.817-2.019 11.074-2.017-2.334.22-6.416.905-10.601 3.035q-.517.262-1.044.563c-2.895 1.656-5.896 4.176-8.258 8.074-2.064 3.406-3.536 7.695-4.14 13.022a50 50 0 0 0-.301 5.326c-.02 3.763.33 8.15 1.258 13.252 1.02 5.683 2.927 10.448 5.292 14.432a40.9 40.9 0 0 0 11.148 12.207 40 40 0 0 0 3.654 2.345c2.405 1.364 3.08 1.558 3.07 1.585" style="opacity:1;fill:currentColor;fill-rule:nonzero;stroke:none;stroke-width:.264583;stroke-opacity:1;stroke:currentColor;stroke-width:10;stroke-linejoin:round" transform="matrix(-1 0 0 1 269.237 0)"/><circle cx="134.692" cy="83.692" r="9.236" style="fill:currentColor;stroke:none;stroke-width:.276432;stroke:currentColor;stroke-width:10;stroke-linejoin:round"/></g></svg>