<svg viewBox="0 0 24 24" fill="none" stroke="currentColor" stroke-width="1.6" stroke-linecap="round" stroke-linejoin="round" aria-hidden="true"><path d="M12 5v15"/><path d="M12 9c-0.8-3-3.5-5.3-6-4.6C3.7 5 3 7.6 4.4 9.7c1 1.6 3.2 2.5 5.4 2.6"/><path d="M9.8 12.3c-2.2 0-4.3 1-4.9 3.1-0.6 2.2 1 4.1 3.4 3.6 2.1-0.5 3.7-2.6 4.2-5.7"/><path d="M12 9c0.8-3 3.5-5.3 6-4.6C20.3 5 21 7.6 19.6 9.7c-1 1.6-3.2 2.5-5.4 2.6"/><path d="M14.2 12.3c2.2 0 4.3 1 4.9 3.1 0.6 2.2-1 4.1-3.4 3.6-2.1-0.5-3.7-2.6-4.2-5.7"/></svg>
